<svg version="1.0" xmlns="http://www.w3.org/2000/svg"
 width="468.000000pt" height="468.000000pt" viewBox="0 0 468.000000 468.000000"
 preserveAspectRatio="xMidYMid meet">
<g transform="translate(0.000000,468.000000) scale(0.100000,-0.100000)"
fill="#000000" stroke="none">
<path d="M2257 4644 c-3 -3 -48 -10 -99 -15 -169 -17 -193 -20 -213 -29 -11
-5 -33 -11 -50 -15 -88 -18 -115 -25 -163 -43 -29 -10 -55 -22 -59 -26 -3 -3
-12 -6 -20 -6 -7 0 -52 -18 -99 -40 -47 -22 -89 -40 -93 -40 -13 0 -116 -57
-180 -100 -35 -23 -68 -43 -75 -44 -6 -1 -21 -11 -32 -22 -12 -12 -44 -34 -73
-50 -28 -16 -51 -34 -51 -39 0 -6 -13 -18 -29 -28 -16 -9 -73 -60 -127 -112
-54 -52 -101 -95 -106 -95 -4 0 -7 -5 -5 -12 1 -7 -8 -17 -20 -23 -13 -5 -23
-16 -23 -23 0 -7 -20 -35 -45 -61 -25 -26 -45 -53 -45 -60 0 -6 -4 -11 -10
-11 -5 0 -10 -5 -10 -11 0 -10 -55 -87 -71 -99 -7 -5 -59 -98 -93 -165 -11
-22 -23 -42 -27 -45 -7 -5 -65 -112 -139 -257 -86 -166 -160 -408 -192 -618
-17 -119 -17 -511 0 -630 34 -224 108 -456 209 -652 109 -214 221 -364 408
-548 67 -66 125 -129 129 -140 7 -22 61 -85 73 -85 5 0 21 -16 38 -35 16 -19
35 -35 42 -35 6 0 18 -8 25 -18 7 -10 20 -21 28 -25 27 -12 55 -32 63 -45 4
-6 22 -19 40 -28 18 -9 34 -20 37 -23 7 -9 89 -62 125 -81 61 -33 110 -62 119
-71 6 -5 16 -9 24 -9 14 0 67 -22 135 -56 16 -8 34 -14 42 -14 7 0 18 -7 25
-15 7 -8 24 -15 39 -15 14 0 39 -7 55 -15 24 -13 116 -15 637 -15 646 0 654 1
765 49 26 12 53 21 60 21 7 0 39 11 70 25 45 20 59 23 66 13 5 -10 8 -8 8 5 0
10 10 21 23 26 12 5 38 20 57 32 19 13 56 34 82 47 26 13 53 31 60 40 7 9 38
30 69 45 62 31 91 51 122 85 11 12 29 22 39 22 10 0 18 5 18 11 0 6 17 27 38
46 58 53 93 88 141 137 25 25 49 46 53 46 4 0 8 5 8 11 0 6 12 23 28 38 50 50
82 89 82 100 0 6 5 11 10 11 6 0 10 5 10 11 0 6 6 16 13 23 6 8 19 24 27 36 8
12 20 28 26 34 6 6 26 38 44 71 18 33 38 67 45 75 7 8 37 62 66 120 30 58 57
107 62 108 4 2 7 15 7 28 0 13 9 41 20 61 11 21 20 45 20 55 0 9 5 20 10 23 6
3 10 16 10 29 0 13 7 36 14 52 24 47 77 250 68 259 -3 3 0 5 6 5 15 0 22 105
28 455 4 191 2 329 -4 360 -25 122 -36 182 -37 205 -3 45 -91 319 -130 405
-12 28 -26 61 -30 75 -13 46 -39 100 -47 100 -4 0 -16 18 -25 40 -10 22 -21
40 -25 40 -5 0 -8 8 -8 19 0 10 -7 24 -15 31 -8 7 -15 19 -15 26 0 8 -4 14
-10 14 -5 0 -10 5 -10 10 0 6 -5 16 -10 23 -27 31 -74 113 -71 126 1 7 -2 10
-8 7 -5 -4 -18 5 -28 19 -10 15 -31 41 -48 60 -44 50 -65 75 -65 79 0 7 -141
146 -148 146 -4 0 -16 14 -27 30 -11 17 -27 32 -36 35 -9 3 -28 16 -41 28 -72
65 -112 97 -123 97 -8 0 -15 3 -17 8 -3 6 -85 65 -137 97 -9 6 -18 12 -21 16
-3 3 -23 13 -45 23 -69 30 -106 50 -125 69 -11 9 -27 17 -38 17 -10 0 -22 4
-27 8 -6 5 -30 14 -55 21 -25 7 -85 27 -135 46 -49 18 -117 38 -150 45 -33 7
-69 16 -80 21 -66 30 -604 66 -628 43z m458 -172 c33 -5 71 -13 85 -16 25 -7
40 -10 95 -21 51 -10 109 -28 123 -38 7 -6 15 -7 18 -4 6 6 56 -10 119 -38 17
-8 48 -21 70 -30 34 -15 104 -49 230 -114 30 -15 42 -23 73 -51 10 -8 47 -33
82 -55 70 -42 73 -45 125 -90 89 -79 110 -100 110 -109 0 -6 10 -12 23 -14 12
-2 22 -7 22 -12 0 -5 19 -29 43 -54 51 -54 97 -107 140 -162 17 -23 43 -56 57
-73 14 -17 32 -43 40 -59 8 -15 26 -42 39 -60 13 -18 24 -44 25 -58 0 -13 8
-26 16 -29 8 -3 21 -19 28 -37 8 -18 27 -58 42 -88 51 -99 122 -288 145 -388
70 -298 75 -334 75 -594 0 -152 -4 -238 -10 -238 -5 0 -10 -24 -10 -53 0 -61
-33 -224 -49 -240 -6 -6 -11 -33 -11 -59 0 -26 -4 -48 -8 -48 -5 0 -14 -22
-21 -50 -7 -27 -17 -52 -22 -56 -5 -3 -9 -14 -9 -25 0 -11 -9 -39 -20 -61 -11
-23 -20 -47 -20 -54 0 -6 -7 -17 -15 -24 -8 -7 -15 -20 -15 -30 0 -21 -65
-156 -79 -164 -5 -4 -21 -30 -35 -59 -14 -28 -36 -65 -50 -81 -15 -16 -26 -35
-26 -43 0 -7 -4 -13 -8 -13 -4 0 -16 -14 -26 -31 -16 -26 -53 -73 -121 -151
-8 -10 -15 -22 -15 -28 0 -5 -7 -10 -15 -10 -9 0 -18 -7 -22 -16 -3 -8 -31
-39 -61 -67 -31 -29 -67 -64 -81 -78 -14 -14 -39 -34 -56 -45 -16 -10 -43 -31
-60 -46 -42 -38 -104 -78 -119 -78 -7 0 -26 -14 -44 -31 -30 -29 -96 -69 -115
-69 -5 0 -22 -9 -38 -21 -16 -11 -36 -18 -44 -15 -8 3 -15 2 -15 -2 0 -17
-169 -91 -290 -127 -334 -100 -725 -111 -1050 -31 -36 9 -87 21 -115 27 -66
15 -206 68 -226 85 -8 8 -21 14 -27 14 -19 0 -249 123 -279 149 -7 6 -17 11
-23 11 -6 0 -13 7 -16 15 -4 8 -14 15 -24 15 -10 0 -23 6 -29 14 -7 8 -40 34
-73 58 -33 24 -72 55 -86 70 -14 15 -33 30 -43 33 -11 4 -19 11 -19 17 0 11
-4 17 -48 63 -38 41 -87 80 -98 77 -15 -3 -156 146 -230 243 -141 186 -253
398 -322 615 -133 416 -132 792 4 1212 59 181 177 418 247 494 28 31 52 62 53
68 3 19 104 166 114 166 5 0 7 6 4 13 -2 7 9 26 25 43 17 16 31 32 31 35 0 4
14 22 32 40 17 19 49 57 71 84 21 28 50 56 63 63 13 7 24 16 24 20 0 9 75 92
83 92 4 0 26 18 48 40 23 22 46 40 51 40 6 0 26 14 45 30 18 17 40 30 47 30 8
0 16 7 20 15 3 8 12 15 19 15 8 0 20 6 26 14 7 8 36 27 64 42 29 14 63 35 76
45 12 10 38 21 57 25 19 3 34 10 34 14 0 4 18 15 40 24 22 9 40 20 40 26 0 5
9 10 19 10 11 0 39 10 63 21 63 32 76 36 148 49 36 6 74 16 85 20 11 5 34 11
50 13 17 3 55 10 85 16 30 6 78 15 105 20 62 12 458 6 540 -7z"/>
<path d="M2008 4223 c-16 -2 -44 -19 -63 -37 -29 -28 -35 -40 -35 -76 0 -36 6
-48 36 -76 33 -31 55 -40 94 -36 32 4 80 -10 80 -22 0 -21 -33 -44 -58 -40
-13 2 -32 14 -41 25 -16 20 -20 21 -47 8 -39 -19 -43 -55 -9 -91 14 -16 35
-28 45 -28 11 0 20 -4 20 -9 0 -11 68 -6 103 8 15 6 27 15 27 21 0 5 7 10 16
10 24 0 47 67 39 115 -7 47 -35 80 -77 90 -37 9 -35 24 2 32 24 4 30 10 30 33
0 55 -73 89 -162 73z"/>
<path d="M2914 4171 c-49 -21 -70 -97 -40 -149 7 -13 35 -40 62 -61 59 -44 71
-81 27 -81 -38 1 -63 22 -63 53 0 29 -24 47 -64 47 -53 0 -43 -94 16 -151 44
-42 97 -56 149 -39 59 20 89 60 89 121 0 43 -4 53 -32 78 -39 34 -34 46 11 30
41 -14 52 -1 49 56 -3 33 -9 43 -45 68 -45 32 -120 45 -159 28z"/>
<path d="M1620 4088 c-51 -28 -90 -85 -90 -135 0 -57 21 -131 46 -160 13 -15
24 -31 24 -34 0 -3 18 -13 41 -23 54 -24 130 -15 178 21 44 34 75 103 69 157
-7 58 -45 136 -81 165 -45 37 -127 40 -187 9z m117 -96 c33 -28 54 -82 34 -82
-6 0 -11 -5 -11 -11 0 -5 5 -7 10 -4 16 10 11 -32 -6 -49 -23 -23 -61 -30 -77
-15 -24 25 -62 110 -52 117 6 4 10 14 10 22 0 9 8 14 21 13 14 -2 24 4 27 17
7 25 7 25 44 -8z"/>
<path d="M3240 4062 c-37 -12 -40 -58 -5 -74 48 -22 43 -50 -35 -178 -44 -73
-48 -99 -22 -123 36 -33 56 -22 96 56 48 94 73 138 84 149 6 6 22 3 41 -7 49
-25 87 -4 75 42 -5 19 -41 45 -134 98 -68 39 -81 43 -100 37z"/>
<path d="M1295 3883 c-119 -63 -143 -183 -60 -301 41 -57 111 -81 179 -62 26
7 49 17 52 21 3 5 17 9 32 10 15 0 21 3 14 6 -8 3 -3 17 18 46 47 66 48 96 9
151 -47 63 -67 66 -128 22 -56 -41 -63 -53 -48 -81 16 -31 29 -35 59 -17 35
20 44 11 27 -27 -28 -63 -95 -58 -152 10 -31 38 -31 70 0 114 15 21 26 25 62
23 48 -2 71 17 71 58 0 40 -80 56 -135 27z"/>
<path d="M2195 3820 c-22 -5 -61 -10 -87 -11 -27 -1 -48 -6 -48 -9 0 -4 -24
-14 -52 -23 -82 -25 -181 -58 -200 -68 -11 -6 -18 -5 -18 1 0 5 -4 10 -10 10
-5 0 -7 -6 -4 -14 5 -13 -43 -44 -175 -116 -16 -8 -49 -36 -75 -61 -34 -33
-54 -46 -69 -43 -12 2 -16 2 -9 -2 9 -4 5 -11 -12 -25 -13 -10 -29 -19 -35
-19 -6 0 -11 -7 -11 -15 0 -9 -7 -18 -15 -21 -8 -4 -15 -12 -15 -19 0 -8 -9
-17 -20 -20 -11 -3 -20 -12 -20 -20 0 -7 -6 -20 -13 -27 -52 -52 -127 -150
-121 -159 3 -6 -3 -13 -15 -16 -11 -3 -19 -9 -16 -13 9 -15 -18 -61 -32 -55
-9 3 -13 -1 -12 -13 4 -27 -11 -63 -23 -56 -6 4 -8 2 -5 -3 4 -6 -9 -43 -28
-82 -19 -39 -35 -75 -35 -80 0 -5 -5 -22 -12 -38 -6 -15 -13 -37 -15 -48 -2
-11 -10 -48 -19 -83 -8 -34 -13 -66 -11 -70 3 -4 0 -18 -6 -32 -6 -14 -11 -41
-12 -60 -1 -19 -6 -81 -10 -137 -9 -115 8 -354 32 -443 8 -30 19 -73 24 -95 5
-22 16 -54 24 -72 8 -17 15 -37 15 -44 0 -17 63 -153 72 -157 5 -2 8 -8 8 -14
0 -14 90 -162 101 -166 5 -2 9 -10 9 -17 0 -7 16 -30 35 -51 23 -26 32 -45 29
-57 -5 -15 -2 -18 14 -13 15 5 22 1 27 -14 3 -11 11 -20 17 -20 6 0 9 -3 5 -6
-3 -3 11 -20 31 -37 20 -18 56 -50 80 -72 24 -22 51 -44 60 -49 10 -5 21 -15
25 -23 4 -7 22 -20 40 -29 18 -9 34 -20 37 -25 3 -4 36 -23 73 -43 168 -90
208 -106 368 -146 46 -12 89 -25 94 -30 6 -4 75 -11 155 -15 152 -8 402 8 408
26 2 5 14 9 26 9 12 0 47 8 77 17 30 9 61 18 69 19 27 5 221 92 230 103 3 3
28 17 55 31 28 14 55 30 60 36 6 6 37 31 70 55 91 68 300 280 288 293 -4 3 -1
6 5 6 7 0 12 7 12 15 0 7 6 18 14 22 8 4 24 28 37 53 26 51 80 133 92 138 4 2
7 9 7 15 0 7 12 41 26 77 41 101 41 101 62 175 33 117 52 207 53 263 1 29 6
55 11 58 5 3 8 80 7 172 -1 92 -5 158 -9 147 -5 -13 -9 3 -14 45 -7 74 -34
203 -48 240 -6 14 -16 39 -23 55 -22 49 -37 106 -31 112 3 4 0 13 -8 22 -8 9
-35 58 -61 109 -26 50 -50 92 -55 92 -5 0 -19 17 -31 38 -13 20 -27 39 -31 40
-4 2 -8 9 -8 16 0 7 -22 40 -50 74 -27 34 -47 62 -42 62 4 0 -8 8 -25 16 -18
9 -33 23 -33 30 0 8 -3 13 -7 12 -9 -3 -63 49 -63 60 0 4 -8 12 -18 17 -53 29
-82 51 -82 62 0 7 -3 12 -7 12 -18 -3 -36 2 -30 7 7 8 -12 19 -145 85 -153 76
-199 95 -278 113 -41 9 -103 24 -137 32 -68 15 -415 18 -488 4z m335 -104
c115 -5 242 -32 355 -76 158 -61 214 -93 288 -157 20 -18 42 -33 49 -33 24 0
278 -242 278 -265 0 -2 15 -25 33 -50 57 -82 67 -100 67 -117 0 -10 4 -18 9
-18 15 0 102 -186 95 -204 -3 -9 -1 -16 5 -16 11 0 32 -60 62 -185 26 -105 41
-345 28 -444 -5 -42 -12 -100 -14 -130 -3 -30 -9 -59 -14 -65 -4 -6 -12 -28
-15 -50 -4 -21 -11 -46 -16 -55 -5 -9 -18 -45 -31 -81 -12 -36 -26 -69 -31
-74 -4 -6 -8 -20 -8 -32 0 -12 -7 -27 -15 -34 -8 -7 -15 -16 -15 -21 0 -5 -16
-33 -35 -63 -19 -30 -35 -58 -35 -61 0 -12 -92 -135 -111 -148 -10 -8 -17 -16
-14 -19 5 -5 -21 -30 -161 -157 -32 -29 -72 -60 -89 -67 -16 -7 -25 -13 -20
-14 6 0 -1 -6 -15 -13 -48 -26 -105 -59 -115 -67 -22 -17 -86 -50 -98 -50 -7
0 -33 -10 -57 -21 -52 -25 -180 -54 -335 -76 -114 -15 -262 -12 -340 7 -22 6
-55 13 -73 16 -37 5 -247 70 -275 85 -10 6 -48 26 -85 45 -37 20 -77 47 -89
60 -12 13 -26 24 -32 24 -12 0 -97 71 -94 79 1 4 -8 8 -20 8 -12 1 -23 6 -25
12 -2 5 -30 35 -62 68 -33 32 -60 62 -60 67 0 4 -11 17 -25 28 -14 11 -46 52
-71 91 -26 40 -57 88 -70 107 -13 19 -29 51 -35 70 -7 19 -17 42 -24 50 -17
22 -75 173 -75 198 0 11 -4 23 -9 26 -16 10 -40 182 -47 331 -6 131 15 354 41
428 8 23 15 49 15 57 0 8 9 33 20 55 11 22 19 43 20 48 0 8 86 194 101 217 5
8 13 25 19 38 5 12 16 25 24 28 8 3 17 16 20 30 4 13 25 44 47 67 22 23 47 54
55 70 8 15 19 27 24 27 5 0 29 19 53 43 99 95 177 157 197 157 5 0 13 6 17 13
14 22 67 53 138 81 39 15 79 33 90 40 49 32 255 85 330 86 28 1 68 5 90 9 22
5 49 7 60 5 11 -2 67 -6 125 -8z"/>
<path d="M2390 3599 c-14 -12 -49 -42 -79 -67 -30 -26 -73 -60 -97 -77 -81
-57 -177 -130 -247 -188 -38 -32 -83 -65 -99 -73 -15 -8 -28 -19 -28 -24 0 -6
-6 -10 -14 -10 -7 0 -30 -18 -50 -40 l-36 -40 0 -352 c0 -301 -2 -359 -17
-404 -15 -50 -15 -55 0 -72 14 -15 17 -41 17 -149 0 -137 -4 -163 -25 -163 -6
0 -27 -7 -45 -16 -30 -15 -32 -19 -26 -53 3 -20 9 -46 12 -57 9 -33 -111 -79
-249 -96 -83 -10 -107 -16 -105 -27 4 -17 10 -20 125 -68 l92 -37 -24 -26
c-36 -37 -90 -171 -74 -181 14 -8 18 -7 63 25 55 37 223 126 241 126 6 0 18
-11 25 -25 13 -24 16 -25 129 -25 64 0 126 -3 139 -6 28 -8 29 -39 2 -114 -25
-71 -25 -74 8 -90 15 -8 36 -22 47 -31 11 -10 66 -29 123 -43 96 -25 104 -25
127 -10 14 9 25 25 25 35 0 10 8 26 19 36 10 10 22 29 26 43 4 14 21 38 36 54
16 17 29 34 29 40 0 5 6 1 14 -9 13 -18 14 -18 9 8 -10 50 9 37 120 -87 16
-17 35 -45 42 -63 20 -47 45 -57 92 -35 100 47 195 117 217 161 11 21 13 37 6
60 -5 17 -5 29 0 26 4 -3 10 1 13 9 5 13 49 20 164 27 25 1 104 -36 133 -63
10 -10 23 -18 28 -18 5 0 21 -9 36 -21 44 -34 62 1 31 61 -9 17 -15 32 -15 35
0 3 0 8 0 13 0 4 -14 23 -31 41 -34 38 -33 55 6 65 15 4 58 21 96 38 48 22 69
38 69 50 0 10 -3 18 -7 18 -73 3 -148 12 -186 22 -49 12 -96 46 -80 57 17 12
11 231 -7 262 -8 12 -20 14 -77 18 -10 1 -13 110 -13 510 0 586 12 521 -112
612 -40 30 -75 56 -78 59 -8 8 -93 75 -146 116 -27 21 -58 45 -69 55 -11 10
-49 41 -85 70 -36 29 -72 60 -80 69 -59 62 -115 76 -160 39z m305 -269 c5 0
15 -7 24 -15 9 -8 27 -24 41 -34 23 -18 24 -20 6 -27 -13 -5 -23 -1 -32 11
-13 18 -14 18 -14 -3 0 -12 -4 -22 -9 -22 -8 0 7 -53 22 -77 9 -14 -3 -23 -28
-19 -11 2 -20 11 -21 22 -3 63 -5 74 -13 74 -5 0 -12 -12 -16 -27 l-7 -28 -11
25 c-5 14 -9 31 -8 39 4 22 -21 72 -33 68 -7 -3 -11 5 -10 22 2 36 2 36 23 17
11 -10 22 -13 25 -8 3 6 1 12 -6 14 -7 3 -8 9 -3 18 6 10 14 6 35 -18 15 -18
30 -32 35 -32z"/>
<path d="M3497 3785 c-38 -25 -70 -45 -72 -45 -5 0 -155 -101 -155 -105 0 -2
5 -16 12 -30 9 -19 19 -25 43 -25 18 0 38 7 45 15 18 22 41 18 80 -16 30 -25
34 -35 33 -72 -1 -30 5 -48 20 -64 41 -45 70 -20 83 70 3 23 12 62 19 87 53
178 55 192 23 214 -35 25 -58 19 -131 -29z"/>
<path d="M3744 3635 c-16 -24 -16 -27 5 -49 11 -12 21 -29 21 -37 0 -17 -48
-74 -67 -80 -24 -8 -123 -111 -123 -128 0 -20 30 -51 50 -51 16 0 73 41 117
84 17 17 45 44 63 59 l32 29 29 -31 c33 -37 45 -38 69 -9 18 22 17 24 -8 68
-15 25 -42 62 -62 82 -19 20 -43 48 -53 62 -23 33 -52 33 -73 1z"/>
<path d="M946 3538 c-20 -27 -20 -67 -3 -93 8 -11 38 -65 67 -120 29 -55 57
-106 63 -113 5 -7 8 -13 6 -15 -2 -1 -13 -7 -24 -13 -11 -6 -31 -33 -45 -62
-35 -72 -39 -75 -88 -55 -23 9 -42 20 -42 25 0 19 -29 6 -32 -14 -7 -53 4 -89
31 -101 14 -6 43 -22 64 -35 21 -12 46 -21 56 -17 9 3 29 31 45 63 45 93 55
107 72 104 13 -3 15 2 10 25 -5 23 0 37 23 67 26 32 28 41 19 67 -5 16 -14 32
-19 35 -13 8 52 94 70 93 9 -1 27 -4 41 -8 19 -5 31 0 55 23 30 30 30 31 11
50 -17 17 -74 37 -276 97 -81 24 -86 24 -104 -3z"/>
<path d="M3980 3358 c-13 -5 -38 -19 -55 -32 -16 -12 -69 -46 -118 -75 -48
-29 -91 -60 -96 -70 -7 -12 -2 -29 20 -64 16 -26 29 -52 29 -57 0 -10 20 -51
30 -60 3 -3 13 -17 23 -32 23 -37 63 -38 79 -2 11 23 7 34 -27 99 -34 62 -37
75 -26 89 23 27 40 18 71 -38 42 -73 54 -83 85 -66 32 17 31 26 -6 98 -32 59
-33 92 -5 92 7 0 17 -11 20 -25 9 -35 57 -103 78 -110 10 -3 27 -1 39 5 26 14
21 40 -24 116 -18 30 -36 64 -42 75 -5 10 -13 19 -17 19 -5 0 -8 6 -8 14 0 23
-23 35 -50 24z"/>
<path d="M4151 2405 c-99 -44 -138 -162 -88 -265 22 -47 35 -57 109 -80 32
-10 44 -8 84 9 26 12 53 21 60 21 8 0 14 7 14 15 0 8 4 15 9 15 34 0 44 161
13 210 -26 41 -75 80 -102 80 -14 0 -34 2 -45 5 -11 3 -35 -2 -54 -10z"/>
<path d="M544 2314 c-39 -19 -74 -80 -74 -129 0 -76 64 -145 135 -145 46 0 95
30 115 71 66 128 -52 264 -176 203z"/>
<path d="M1073 1025 c-59 -64 -109 -125 -111 -136 -9 -54 61 -67 101 -19 30
35 47 38 73 9 27 -30 68 -49 104 -49 36 0 36 0 10 -52 -45 -93 -10 -192 85
-240 32 -17 51 -19 102 -15 65 6 84 -2 63 -28 -25 -30 0 -54 103 -105 l102
-49 18 21 c25 29 22 65 -5 73 -41 12 -108 50 -108 61 0 7 14 39 30 72 17 34
30 64 30 67 0 3 9 26 20 50 24 52 19 70 -23 85 -28 9 -34 8 -49 -10 -16 -20
-17 -20 -29 17 -29 89 -82 125 -186 125 -59 0 -77 8 -52 23 16 11 0 62 -35
114 -17 25 -35 48 -39 49 -4 2 -21 15 -36 28 -16 13 -36 24 -44 24 -9 0 -64
-52 -124 -115z m399 -242 c30 -29 38 -76 15 -90 -7 -4 -23 -23 -36 -40 -25
-36 -63 -44 -96 -19 -21 15 -28 91 -10 104 6 4 18 19 27 34 10 14 28 29 40 31
13 2 25 5 27 6 3 0 18 -11 33 -26z"/>
<path d="M3575 1070 c-58 -25 -105 -97 -105 -161 l0 -32 -25 23 c-21 20 -30
22 -53 14 -21 -7 -28 -17 -30 -42 -3 -33 -15 -39 -42 -22 -30 19 -76 -48 -52
-75 5 -6 21 -32 36 -58 l27 -48 -28 7 c-15 4 -52 22 -81 41 -53 33 -86 41 -97
23 -3 -6 -26 -15 -50 -21 -25 -6 -48 -16 -53 -23 -6 -7 -4 -34 5 -69 8 -32 13
-60 11 -62 -12 -13 -76 -33 -85 -27 -5 4 -20 28 -31 55 -24 55 -50 61 -87 21
-19 -21 -27 -24 -44 -15 -28 15 -105 14 -144 -3 -18 -7 -45 -27 -59 -45 -30
-35 -38 -38 -38 -13 -1 39 -14 45 -111 42 -52 -1 -101 -3 -109 -2 -17 0 -142
17 -248 33 l-72 12 -49 -41 c-50 -43 -61 -44 -61 -7 0 31 -29 97 -49 112 -9 7
-26 13 -38 13 -19 0 -23 -5 -23 -32 0 -18 5 -51 10 -73 30 -121 31 -135 8
-201 -25 -72 -17 -94 33 -94 26 0 32 7 54 56 14 31 25 62 26 68 1 15 119 106
138 106 48 -1 52 -27 33 -183 -6 -49 -8 -95 -5 -103 3 -9 19 -14 44 -14 44 0
40 -11 58 164 11 113 19 128 59 106 27 -15 27 -18 35 -150 7 -107 12 -136 25
-147 9 -7 24 -10 32 -7 8 3 58 8 110 11 107 6 124 14 115 52 -9 37 -22 41 -95
36 -74 -5 -93 2 -88 36 3 22 10 25 77 33 59 7 74 12 78 27 9 32 20 21 27 -26
20 -130 178 -181 271 -88 41 41 52 75 36 109 -9 21 -17 25 -44 22 -26 -2 -35
-10 -50 -40 -21 -47 -56 -51 -92 -12 -19 21 -25 38 -25 73 0 52 5 63 38 80 20
11 27 10 43 -5 14 -13 29 -15 63 -11 l44 6 16 -42 c9 -24 16 -48 16 -55 0 -7
4 -12 9 -12 5 0 14 -19 20 -43 16 -64 23 -71 64 -63 43 8 53 30 33 77 -30 76
-29 85 13 99 49 16 69 9 76 -27 16 -74 38 -94 82 -74 27 12 27 14 7 109 -11
58 27 28 52 -40 9 -26 42 -32 65 -12 26 23 24 38 -12 101 -17 30 -29 56 -27
59 7 6 72 -22 114 -51 20 -14 45 -25 56 -25 25 0 68 29 68 46 0 8 -20 52 -45
97 -25 46 -45 87 -45 90 0 16 29 5 35 -12 3 -11 20 -37 36 -58 17 -21 35 -48
40 -60 11 -29 38 -29 68 -2 26 24 23 57 -9 92 -33 35 -24 47 18 25 69 -36 159
-7 206 66 48 73 22 178 -39 159 -29 -8 -36 -23 -29 -64 5 -31 1 -39 -25 -62
-38 -31 -58 -27 -111 24 -44 43 -51 78 -24 117 11 16 25 22 53 22 30 0 42 6
55 25 21 32 20 52 -3 65 -23 12 -78 12 -106 0z"/>
</g>
</svg>
